<mxfile host="app.diagrams.net" modified="2023-01-20T02:47:57.391Z" agent="5.0 (Windows NT 10.0; Win64; x64) AppleWebKit/537.36 (KHTML, like Gecko) Chrome/109.0.0.0 Safari/537.36" etag="pK-fI1xa63hzWVmBvmQA" version="20.8.8" type="github">
  <diagram name="페이지-1" id="kAWBmJvLkoHz6sw6lmBF">
    <mxGraphModel dx="808" dy="447" grid="1" gridSize="10" guides="1" tooltips="1" connect="1" arrows="1" fold="1" page="1" pageScale="1" pageWidth="827" pageHeight="1169" math="0" shadow="0">
      <root>
        <mxCell id="0" />
        <mxCell id="1" parent="0" />
        <mxCell id="C1u7BzHFEcThZ1P9Oeuv-7" style="edgeStyle=orthogonalEdgeStyle;rounded=0;orthogonalLoop=1;jettySize=auto;html=1;exitX=0.5;exitY=1;exitDx=0;exitDy=0;exitPerimeter=0;entryX=0.5;entryY=0;entryDx=0;entryDy=0;" edge="1" parent="1" source="C1u7BzHFEcThZ1P9Oeuv-1" target="C1u7BzHFEcThZ1P9Oeuv-9">
          <mxGeometry relative="1" as="geometry">
            <mxPoint x="180" y="160" as="targetPoint" />
          </mxGeometry>
        </mxCell>
        <mxCell id="C1u7BzHFEcThZ1P9Oeuv-1" value="시작" style="strokeWidth=2;html=1;shape=mxgraph.flowchart.start_1;whiteSpace=wrap;" vertex="1" parent="1">
          <mxGeometry x="120" y="80" width="120" height="40" as="geometry" />
        </mxCell>
        <mxCell id="C1u7BzHFEcThZ1P9Oeuv-14" style="edgeStyle=orthogonalEdgeStyle;rounded=0;orthogonalLoop=1;jettySize=auto;html=1;exitX=0.5;exitY=1;exitDx=0;exitDy=0;entryX=0.5;entryY=0;entryDx=0;entryDy=0;entryPerimeter=0;" edge="1" parent="1" source="C1u7BzHFEcThZ1P9Oeuv-6" target="C1u7BzHFEcThZ1P9Oeuv-13">
          <mxGeometry relative="1" as="geometry" />
        </mxCell>
        <mxCell id="C1u7BzHFEcThZ1P9Oeuv-6" value="area = &lt;br&gt;base * height / 2" style="rounded=1;whiteSpace=wrap;html=1;absoluteArcSize=1;arcSize=14;strokeWidth=2;fillColor=#d5e8d4;strokeColor=#82b366;" vertex="1" parent="1">
          <mxGeometry x="120" y="240" width="120" height="40" as="geometry" />
        </mxCell>
        <mxCell id="C1u7BzHFEcThZ1P9Oeuv-10" style="edgeStyle=orthogonalEdgeStyle;rounded=0;orthogonalLoop=1;jettySize=auto;html=1;exitX=0.5;exitY=1;exitDx=0;exitDy=0;entryX=0.5;entryY=0;entryDx=0;entryDy=0;" edge="1" parent="1" source="C1u7BzHFEcThZ1P9Oeuv-9" target="C1u7BzHFEcThZ1P9Oeuv-6">
          <mxGeometry relative="1" as="geometry" />
        </mxCell>
        <mxCell id="C1u7BzHFEcThZ1P9Oeuv-9" value="base, height&lt;br&gt;입력" style="shape=parallelogram;html=1;strokeWidth=2;perimeter=parallelogramPerimeter;whiteSpace=wrap;rounded=1;arcSize=12;size=0.23;fillColor=#dae8fc;strokeColor=#6c8ebf;" vertex="1" parent="1">
          <mxGeometry x="120" y="160" width="120" height="40" as="geometry" />
        </mxCell>
        <mxCell id="C1u7BzHFEcThZ1P9Oeuv-11" value="종료" style="strokeWidth=2;html=1;shape=mxgraph.flowchart.start_1;whiteSpace=wrap;" vertex="1" parent="1">
          <mxGeometry x="120" y="400" width="120" height="40" as="geometry" />
        </mxCell>
        <mxCell id="C1u7BzHFEcThZ1P9Oeuv-15" style="edgeStyle=orthogonalEdgeStyle;rounded=0;orthogonalLoop=1;jettySize=auto;html=1;exitX=0.5;exitY=1;exitDx=0;exitDy=0;exitPerimeter=0;entryX=0.5;entryY=0;entryDx=0;entryDy=0;entryPerimeter=0;" edge="1" parent="1" source="C1u7BzHFEcThZ1P9Oeuv-13" target="C1u7BzHFEcThZ1P9Oeuv-11">
          <mxGeometry relative="1" as="geometry" />
        </mxCell>
        <mxCell id="C1u7BzHFEcThZ1P9Oeuv-13" value="area (출력)" style="strokeWidth=2;html=1;shape=mxgraph.flowchart.document2;whiteSpace=wrap;size=0.25;fillColor=#fff2cc;strokeColor=#d6b656;" vertex="1" parent="1">
          <mxGeometry x="120" y="320" width="120" height="40" as="geometry" />
        </mxCell>
      </root>
    </mxGraphModel>
  </diagram>
</mxfile>
